{
	"asset": {
		"generator": "Tilt Brush 17.0.ec66acc",
		"version": "1.1",
		"copyright": "Unknown."
	},
	"buffers": {
		"sketch": {
			"byteLength": 93516,
			"type": "arraybuffer",
			"uri": "sketch.bin"
		}
	},
	"accessors": {
		"accessor_position_Flat_2d35bcf0-e4d8-452c-97b1-3311be063130_0_0": {
			"bufferView": "vec3BufferView",
			"byteOffset": 0,
			"byteStride": 12,
			"componentType": 5126,
			"count": 1344,
			"max": [ -0.4003654, 0.9953508, 0.6270472 ],
			"min": [ -0.9802878, 0.6961986, -0.07851267 ],
			"type": "VEC3"
		 },
		"accessor_normal_Flat_2d35bcf0-e4d8-452c-97b1-3311be063130_0_0": {
			"bufferView": "vec3BufferView",
			"byteOffset": 16128,
			"byteStride": 12,
			"componentType": 5126,
			"count": 1344,
			"max": [ 0.9575831, 0.9953216, 0.8855656 ],
			"min": [ -0.9762393, -0.995311, -0.7668294 ],
			"type": "VEC3"
		 },
		"accessor_color_Flat_2d35bcf0-e4d8-452c-97b1-3311be063130_0_0": {
			"bufferView": "vec4BufferView",
			"byteOffset": 0,
			"byteStride": 16,
			"componentType": 5126,
			"count": 1344,
			"max": [ 0.5372549, 0.3215686, 0.01176471, 1 ],
			"min": [ 0.5372549, 0.3215686, 0.01176471, 0 ],
			"type": "VEC4"
		 },
		"accessor_tangent_Flat_2d35bcf0-e4d8-452c-97b1-3311be063130_0_0": {
			"bufferView": "vec4BufferView",
			"byteOffset": 21504,
			"byteStride": 16,
			"componentType": 5126,
			"count": 1344,
			"max": [ 0.9906741, 0.9991, 0.9073625, 1 ],
			"min": [ -0.9961299, -0.999113, -0.9968392, 1 ],
			"type": "VEC4"
		 },
		"accessor_uv0_Flat_2d35bcf0-e4d8-452c-97b1-3311be063130_0_0": {
			"bufferView": "vec2BufferView",
			"byteOffset": 0,
			"byteStride": 8,
			"componentType": 5126,
			"count": 1344,
			"max": [ 12.51059, 1 ],
			"min": [ 0.01093883, 0 ],
			"type": "VEC2"
		 },
		"accessor_indices_0_Flat_2d35bcf0-e4d8-452c-97b1-3311be063130_0_0": {
			"bufferView": "ushortBufferView",
			"byteOffset": 0,
			"byteStride": 0,
			"componentType": 5123,
			"count": 3750,
			"max": [ 1343 ],
			"min": [ 0 ],
			"type": "SCALAR"
		 }
	},
	"bufferViews": {
		"ushortBufferView": {
			"buffer": "sketch",
			"byteLength": 7500,
			"byteOffset": 0,
			"target": 34963
		},
		"vec2BufferView": {
			"buffer": "sketch",
			"byteLength": 10752,
			"byteOffset": 7500,
			"target": 34962
		},
		"vec3BufferView": {
			"buffer": "sketch",
			"byteLength": 32256,
			"byteOffset": 18252,
			"target": 34962
		},
		"vec4BufferView": {
			"buffer": "sketch",
			"byteLength": 43008,
			"byteOffset": 50508,
			"target": 34962
		}
	},
	"meshes": {
		"mesh_Flat_2d35bcf0-e4d8-452c-97b1-3311be063130_0_0": {
			"name": "mesh_Flat_2d35bcf0-e4d8-452c-97b1-3311be063130_0_0",
			"primitives": [
				{
					"attributes": {
						"POSITION": "accessor_position_Flat_2d35bcf0-e4d8-452c-97b1-3311be063130_0_0",
						"NORMAL": "accessor_normal_Flat_2d35bcf0-e4d8-452c-97b1-3311be063130_0_0",
						"COLOR": "accessor_color_Flat_2d35bcf0-e4d8-452c-97b1-3311be063130_0_0",
						"TANGENT": "accessor_tangent_Flat_2d35bcf0-e4d8-452c-97b1-3311be063130_0_0",
						"TEXCOORD_0": "accessor_uv0_Flat_2d35bcf0-e4d8-452c-97b1-3311be063130_0_0"
					},
					"indices": "accessor_indices_0_Flat_2d35bcf0-e4d8-452c-97b1-3311be063130_0_0",
					"material": "material_2d35bcf0-e4d8-452c-97b1-3311be063130",
					"mode": 4
				}
			]
		}
	},
	"shaders": {
		"vertex_2d35bcf0-e4d8-452c-97b1-3311be063130": {
			"type": 35633,
			"uri": "https://www.tiltbrush.com/shaders/brushes/Flat-2d35bcf0-e4d8-452c-97b1-3311be063130/Flat-2d35bcf0-e4d8-452c-97b1-3311be063130-v10.0-vertex.glsl"
		},
		"fragment_2d35bcf0-e4d8-452c-97b1-3311be063130": {
			"type": 35632,
			"uri": "https://www.tiltbrush.com/shaders/brushes/Flat-2d35bcf0-e4d8-452c-97b1-3311be063130/Flat-2d35bcf0-e4d8-452c-97b1-3311be063130-v10.0-fragment.glsl"
		}
	},
	"programs": {
		"program_2d35bcf0-e4d8-452c-97b1-3311be063130": {
			"attributes": [
				"a_position",
				"a_normal",
				"a_color",
				"a_tangent",
				"a_texcoord0"				
			],
			"vertexShader": "vertex_2d35bcf0-e4d8-452c-97b1-3311be063130",
			"fragmentShader": "fragment_2d35bcf0-e4d8-452c-97b1-3311be063130"
		}
	},
	"techniques": {
		"technique_2d35bcf0-e4d8-452c-97b1-3311be063130": {
			"program": "program_2d35bcf0-e4d8-452c-97b1-3311be063130",
			"parameters": {
				"position": {
					"type": 35665,
					"semantic": "POSITION"
				},
				"normal": {
					"type": 35665,
					"semantic": "NORMAL"
				},
				"color": {
					"type": 35666,
					"semantic": "COLOR"
				},
				"tangent": {
					"type": 35666,
					"semantic": "TANGENT"
				},
				"texcoord0": {
					"type": 35664,
					"semantic": "TEXCOORD_0"
				},
				"modelViewMatrix": {
					"type": 35676,
					"semantic": "MODELVIEW"
				},
				"projectionMatrix": {
					"type": 35676,
					"semantic": "PROJECTION"
				},
				"normalMatrix": {
					"type": 35675,
					"semantic": "MODELVIEWINVERSETRANSPOSE"
				},
				"SceneLight_0_matrix": {
					"type": 35676,
					"semantic": "MODELVIEW",
					"node": "node_SceneLight_0_-1038"
				},
				"SceneLight_0_color": {
					"type": 35666,
					"node": "node_SceneLight_0_-1038"
				},
				"SceneLight_1_matrix": {
					"type": 35676,
					"semantic": "MODELVIEW",
					"node": "node_SceneLight_1_-1044"
				},
				"SceneLight_1_color": {
					"type": 35666,
					"node": "node_SceneLight_1_-1044"
				},
				"ambient_light_color": {
					"type": 35666
				},
				"Color": {
					"type": 35666
				}				
			},
			"attributes": {
				"a_position": "position",
				"a_normal": "normal",
				"a_color": "color",
				"a_tangent": "tangent",
				"a_texcoord0": "texcoord0"				
			},
			"uniforms": {
				"u_modelViewMatrix": "modelViewMatrix",
				"u_projectionMatrix": "projectionMatrix",
				"u_normalMatrix": "normalMatrix",
				"u_SceneLight_0_matrix": "SceneLight_0_matrix",
				"u_SceneLight_0_color": "SceneLight_0_color",
				"u_SceneLight_1_matrix": "SceneLight_1_matrix",
				"u_SceneLight_1_color": "SceneLight_1_color",
				"u_ambient_light_color": "ambient_light_color",
				"u_Color": "Color"				
			},
			"states": {
				"enable": [
					2929
				],
				"functions": {
					"depthMask": [true]
				}
			}
		}
	},
	"materials": {
		"material_2d35bcf0-e4d8-452c-97b1-3311be063130": {
			"technique": "technique_2d35bcf0-e4d8-452c-97b1-3311be063130",
			"values": {
				"SceneLight_0_color": [0.7780392, 0.8156863, 0.9913726, 1],
				"SceneLight_1_color": [0.4282353, 0.4211765, 0.3458824, 1],
				"ambient_light_color": [0.3921569, 0.3921569, 0.3921569, 1],
				"Color": [1, 1, 1, 1]				
			},
			"name": "material_2d35bcf0-e4d8-452c-97b1-3311be063130"
		}
	},
	"nodes": {
		"node_Flat_2d35bcf0-e4d8-452c-97b1-3311be063130_0_0": {
			"name": "node_Flat_2d35bcf0-e4d8-452c-97b1-3311be063130_0_0",
			"meshes": [
				"mesh_Flat_2d35bcf0-e4d8-452c-97b1-3311be063130_0_0"
			],
			"matrix": [1, 0, 0, 0, 0, 1, 0, 0, 0, 0, 1, 0, 0, 0, 0, 1]
		},
		"node_SceneLight_0_-1038": {
			"name": "node_SceneLight_0_-1038",
			"light": "SceneLight_0",
			"matrix": [0.898794, 0.2191856, -0.3796406, 0, -0.4383712, 0.449397, -0.7783785, 0, -1.490116E-08, 0.8660254, 0.4999999, 0, -1.101727, -1.887845, -2.904479, 1]
		},
		"node_SceneLight_1_-1044": {
			"name": "node_SceneLight_1_-1044",
			"light": "SceneLight_1",
			"matrix": [0.7660444, -0.4924039, -0.4131759, 0, -0.6427876, -0.5868242, -0.4924039, 0, 8.940697E-08, 0.6427876, -0.7660446, 0, -0.91296, -2.057396, -2.790343, 1]
		}
	},
	"scene": "defaultScene",
	"scenes": {
		"defaultScene": {
			"nodes": [
				"node_Flat_2d35bcf0-e4d8-452c-97b1-3311be063130_0_0",
				"node_SceneLight_0_-1038",
				"node_SceneLight_1_-1044"
			],
			"extras": {
				"TB_EnvironmentGuid": "580b4529-ac50-4fe9-b8d2-635765a14893",
				"TB_Environment": "Black",
				"TB_UseGradient": "true",
				"TB_SkyColorA": "0, 0, 0",
				"TB_SkyColorB": "0, 0, 0",
				"TB_SkyGradientDirection": "0, 1, 0",
				"TB_FogColor": "0.01960784, 0.01960784, 0.01960784",
				"TB_FogDensity": "0",
				"TB_SkyColorHorizon": "0, 0, 0",
				"TB_SkyColorZenith": "0, 0, 0"
			}
		}
	}
}